<?xml version="1.0" encoding="iso-8859-1"?>
<!-- Generator: Adobe Illustrator 19.0.0, SVG Export Plug-In . SVG Version: 6.00 Build 0)  -->
<svg version="1.1" id="Capa_1" xmlns="http://www.w3.org/2000/svg" xmlns:xlink="http://www.w3.org/1999/xlink" x="0px" y="0px"
	 viewBox="0 0 469.333 469.333" style="enable-background:new 0 0 469.333 469.333;" xml:space="preserve">
<g>
	<g>
		<g>
			<circle cx="53.333" cy="53.333" r="10.667"/>
			<circle cx="96" cy="53.333" r="10.667"/>
			<circle cx="138.667" cy="53.333" r="10.667"/>
			<path d="M426.667,0h-384C19.146,0,0,19.135,0,42.667v384c0,23.531,19.146,42.667,42.667,42.667h384
				c23.521,0,42.667-19.135,42.667-42.667v-384C469.333,19.135,450.188,0,426.667,0z M448,426.667
				c0,11.76-9.563,21.333-21.333,21.333h-384c-11.771,0-21.333-9.573-21.333-21.333v-320H448V426.667z M448,85.333H21.333V42.667
				c0-11.76,9.563-21.333,21.333-21.333h384c11.771,0,21.333,9.573,21.333,21.333V85.333z"/>
			<path d="M138.667,384h32c5.896,0,10.667-4.771,10.667-10.667s-4.771-10.667-10.667-10.667h-6.25l70.25-70.25l70.25,70.25h-6.25
				c-5.896,0-10.667,4.771-10.667,10.667S292.771,384,298.667,384h32c5.896,0,10.667-4.771,10.667-10.667v-32
				c0-5.896-4.771-10.667-10.667-10.667c-5.896,0-10.667,4.771-10.667,10.667v6.25l-70.25-70.25l70.25-70.25v6.25
				c0,5.896,4.771,10.667,10.667,10.667c5.896,0,10.667-4.771,10.667-10.667v-32c0-5.896-4.771-10.667-10.667-10.667h-32
				c-5.896,0-10.667,4.771-10.667,10.667c0,5.896,4.771,10.667,10.667,10.667h6.25l-70.25,70.25L164.417,192h6.25
				c5.896,0,10.667-4.771,10.667-10.667c0-5.896-4.771-10.667-10.667-10.667h-32c-5.896,0-10.667,4.771-10.667,10.667v32
				c0,5.896,4.771,10.667,10.667,10.667s10.667-4.771,10.667-10.667v-6.25l70.25,70.25l-70.25,70.25v-6.25
				c0-5.896-4.771-10.667-10.667-10.667S128,335.438,128,341.333v32C128,379.229,132.771,384,138.667,384z"/>
		</g>
	</g>
</g>
<g>
</g>
<g>
</g>
<g>
</g>
<g>
</g>
<g>
</g>
<g>
</g>
<g>
</g>
<g>
</g>
<g>
</g>
<g>
</g>
<g>
</g>
<g>
</g>
<g>
</g>
<g>
</g>
<g>
</g>
</svg>
