<svg xmlns="http://www.w3.org/2000/svg" xmlns:xlink="http://www.w3.org/1999/xlink" viewBox="0 0 1675.55 1462.19"><defs><style>.cls-1,.cls-96,.cls-97{fill:none;}.cls-2{isolation:isolate;}.cls-3{fill:url(#radial-gradient);}.cls-4{clip-path:url(#clip-path);}.cls-5{opacity:0.22;}.cls-10,.cls-11,.cls-14,.cls-15,.cls-16,.cls-17,.cls-18,.cls-19,.cls-23,.cls-24,.cls-25,.cls-26,.cls-27,.cls-28,.cls-29,.cls-30,.cls-31,.cls-33,.cls-34,.cls-35,.cls-36,.cls-37,.cls-38,.cls-39,.cls-40,.cls-41,.cls-42,.cls-43,.cls-45,.cls-46,.cls-47,.cls-48,.cls-49,.cls-50,.cls-51,.cls-52,.cls-53,.cls-54,.cls-55,.cls-57,.cls-58,.cls-59,.cls-6,.cls-60,.cls-61,.cls-62,.cls-63,.cls-64,.cls-65,.cls-67,.cls-68,.cls-69,.cls-7,.cls-70,.cls-73,.cls-74,.cls-75,.cls-76,.cls-77,.cls-78,.cls-79,.cls-8,.cls-80,.cls-83,.cls-84,.cls-85,.cls-86,.cls-87,.cls-9,.cls-90,.cls-91,.cls-92,.cls-93,.cls-94{mix-blend-mode:multiply;}.cls-6{fill:url(#radial-gradient-2);}.cls-7{fill:url(#radial-gradient-3);}.cls-8{fill:url(#radial-gradient-4);}.cls-9{fill:url(#radial-gradient-5);}.cls-10{fill:url(#radial-gradient-6);}.cls-11{fill:url(#radial-gradient-7);}.cls-12{fill:url(#radial-gradient-8);}.cls-13{opacity:0.48;}.cls-14{fill:url(#radial-gradient-9);}.cls-15{fill:url(#radial-gradient-10);}.cls-16{fill:url(#radial-gradient-11);}.cls-17{fill:url(#radial-gradient-12);}.cls-18{fill:url(#radial-gradient-13);}.cls-19{fill:url(#radial-gradient-14);}.cls-20{fill:url(#radial-gradient-15);}.cls-21{fill:#fff;}.cls-22{opacity:0.49;}.cls-23{fill:url(#radial-gradient-16);}.cls-24{fill:url(#radial-gradient-17);}.cls-25{fill:url(#radial-gradient-18);}.cls-26{fill:url(#radial-gradient-19);}.cls-27{fill:url(#radial-gradient-20);}.cls-28{fill:url(#radial-gradient-21);}.cls-29{fill:url(#radial-gradient-22);}.cls-30{fill:url(#radial-gradient-23);}.cls-31{fill:url(#radial-gradient-24);}.cls-32{fill:url(#radial-gradient-25);}.cls-33{fill:url(#radial-gradient-26);}.cls-34{fill:url(#radial-gradient-27);}.cls-35{fill:url(#radial-gradient-28);}.cls-36{fill:url(#radial-gradient-29);}.cls-37{fill:url(#radial-gradient-30);}.cls-38{fill:url(#radial-gradient-31);}.cls-39{fill:url(#radial-gradient-32);}.cls-40{fill:url(#radial-gradient-33);}.cls-41{fill:url(#radial-gradient-34);}.cls-42{fill:url(#radial-gradient-35);}.cls-43{fill:url(#radial-gradient-36);}.cls-44{fill:url(#radial-gradient-37);}.cls-45{fill:url(#radial-gradient-38);}.cls-46{fill:url(#radial-gradient-39);}.cls-47{fill:url(#radial-gradient-40);}.cls-48{fill:url(#radial-gradient-41);}.cls-49{fill:url(#radial-gradient-42);}.cls-50{fill:url(#radial-gradient-43);}.cls-51{fill:url(#radial-gradient-44);}.cls-52{fill:url(#radial-gradient-45);}.cls-53{fill:url(#radial-gradient-46);}.cls-54{fill:url(#radial-gradient-47);}.cls-55{fill:url(#radial-gradient-48);}.cls-56{fill:url(#radial-gradient-49);}.cls-57{fill:url(#radial-gradient-50);}.cls-58{fill:url(#radial-gradient-51);}.cls-59{fill:url(#radial-gradient-52);}.cls-60{fill:url(#radial-gradient-53);}.cls-61{fill:url(#radial-gradient-54);}.cls-62{fill:url(#radial-gradient-55);}.cls-63{fill:url(#radial-gradient-56);}.cls-64{fill:url(#radial-gradient-57);}.cls-65{fill:url(#radial-gradient-58);}.cls-66{fill:url(#radial-gradient-59);}.cls-67{fill:url(#radial-gradient-60);}.cls-68{fill:url(#radial-gradient-61);}.cls-69{fill:url(#radial-gradient-62);}.cls-70{fill:url(#radial-gradient-63);}.cls-71{fill:url(#radial-gradient-64);}.cls-72{opacity:0.46;}.cls-73{fill:url(#radial-gradient-65);}.cls-74{fill:url(#radial-gradient-66);}.cls-75{fill:url(#radial-gradient-67);}.cls-76{fill:url(#radial-gradient-68);}.cls-77{fill:url(#radial-gradient-69);}.cls-78{fill:url(#radial-gradient-70);}.cls-79{fill:url(#radial-gradient-71);}.cls-80{fill:url(#radial-gradient-72);}.cls-81{fill:url(#radial-gradient-73);}.cls-82{opacity:0.4;}.cls-83{fill:url(#radial-gradient-74);}.cls-84{fill:url(#radial-gradient-75);}.cls-85{fill:url(#radial-gradient-76);}.cls-86{fill:url(#radial-gradient-77);}.cls-87{fill:url(#radial-gradient-78);}.cls-88{fill:url(#radial-gradient-79);}.cls-89{opacity:0.5;}.cls-90{fill:url(#radial-gradient-80);}.cls-91{fill:url(#radial-gradient-81);}.cls-92{fill:url(#radial-gradient-82);}.cls-93{fill:url(#radial-gradient-83);}.cls-94{fill:url(#radial-gradient-84);}.cls-95{fill:url(#radial-gradient-85);}.cls-96,.cls-97{stroke:#fff;stroke-miterlimit:10;}.cls-97{stroke-width:0.25px;}</style><radialGradient id="radial-gradient" cx="534.83" cy="428.26" r="1114.83" gradientUnits="userSpaceOnUse"><stop offset="0.01" stop-color="#00b1ff"/><stop offset="0.99" stop-color="#0406ff"/></radialGradient><clipPath id="clip-path"><rect id="_Rectangle_" data-name="&lt;Rectangle&gt;" class="cls-1" x="434.83" y="438.26" width="750" height="500"/></clipPath><radialGradient id="radial-gradient-2" cx="-1306.07" cy="134.7" r="219.91" gradientTransform="translate(-369.98 746.47) rotate(-180)" gradientUnits="userSpaceOnUse"><stop offset="0.01" stop-color="#0506a3"/><stop offset="0.07" stop-color="#2021ad"/><stop offset="0.21" stop-color="#5a5bc2"/><stop offset="0.35" stop-color="#8d8dd5"/><stop offset="0.49" stop-color="#b6b6e4"/><stop offset="0.63" stop-color="#d6d6f0"/><stop offset="0.76" stop-color="#ededf8"/><stop offset="0.88" stop-color="#fafafd"/><stop offset="0.99" stop-color="#fff"/></radialGradient><radialGradient id="radial-gradient-3" cx="-1468.83" cy="206.73" r="219.91" gradientTransform="translate(-386.8 716.61) rotate(-180)" xlink:href="#radial-gradient-2"/><radialGradient id="radial-gradient-4" cx="-1635.49" cy="260.64" r="219.91" gradientTransform="translate(-400.22 685.67) rotate(-180)" xlink:href="#radial-gradient-2"/><radialGradient id="radial-gradient-5" cx="-1248.98" cy="200.43" r="219.91" gradientTransform="translate(-381.52 758.63) rotate(-180)" xlink:href="#radial-gradient-2"/><radialGradient id="radial-gradient-6" cx="-1222.16" cy="146.57" r="219.91" gradientTransform="translate(-370.7 762.77) rotate(-180)" xlink:href="#radial-gradient-2"/><radialGradient id="radial-gradient-7" cx="-1260.54" cy="118.74" r="219.91" gradientTransform="translate(-366.08 754.9) rotate(-180)" xlink:href="#radial-gradient-2"/><radialGradient id="radial-gradient-8" cx="792.83" cy="675.26" r="864.38" xlink:href="#radial-gradient"/><radialGradient id="radial-gradient-9" cx="494.44" cy="369.56" r="219.92" gradientTransform="matrix(1, 0, 0, 1, 30.77, 421.47)" xlink:href="#radial-gradient-2"/><radialGradient id="radial-gradient-10" cx="331.66" cy="441.59" r="219.92" gradientTransform="translate(141.84 519.76)" xlink:href="#radial-gradient-2"/><radialGradient id="radial-gradient-11" cx="164.99" cy="495.49" r="219.92" gradientTransform="translate(240.53 627.3)" xlink:href="#radial-gradient-2"/><radialGradient id="radial-gradient-12" cx="551.53" cy="435.3" r="219.92" gradientTransform="translate(60.75 355.4)" xlink:href="#radial-gradient-2"/><radialGradient id="radial-gradient-13" cx="578.35" cy="381.44" r="219.92" gradientTransform="translate(10.64 353.79)" xlink:href="#radial-gradient-2"/><radialGradient id="radial-gradient-14" cx="539.97" cy="353.6" r="219.92" gradientTransform="translate(2.88 392.52)" xlink:href="#radial-gradient-2"/><radialGradient id="radial-gradient-15" cx="-1089.88" cy="676.49" r="871.02" gradientTransform="translate(408.27 1883.25) rotate(134.28)" xlink:href="#radial-gradient"/><radialGradient id="radial-gradient-16" cx="449.37" cy="571.77" r="219.93" gradientTransform="matrix(0, 1, -1, 0, 1047.72, 379.83)" xlink:href="#radial-gradient-2"/><radialGradient id="radial-gradient-17" cx="588.53" cy="566.39" r="219.93" gradientTransform="translate(1169.18 298.15) rotate(90)" xlink:href="#radial-gradient-2"/><radialGradient id="radial-gradient-18" cx="742.83" cy="539.03" r="219.93" gradientTransform="translate(1292.06 188.46) rotate(90)" xlink:href="#radial-gradient-2"/><radialGradient id="radial-gradient-19" cx="882.05" cy="465.95" r="219.93" gradientTransform="matrix(0, 1, -1, 0, 1376.18, 46.21)" xlink:href="#radial-gradient-2"/><radialGradient id="radial-gradient-20" cx="986.07" cy="319.1" r="219.93" gradientTransform="translate(1388.08 -142.56) rotate(90)" xlink:href="#radial-gradient-2"/><radialGradient id="radial-gradient-21" cx="1093" cy="195.8" r="219.93" gradientTransform="matrix(0, 1, -1, 0, 1415.59, -311.89)" xlink:href="#radial-gradient-2"/><radialGradient id="radial-gradient-22" cx="1005.8" cy="185.04" r="219.93" gradientTransform="translate(1331.67 -273.34) rotate(90)" xlink:href="#radial-gradient-2"/><radialGradient id="radial-gradient-23" cx="1005.8" cy="294.48" r="219.93" gradientTransform="translate(1392.12 -175.47) rotate(90)" xlink:href="#radial-gradient-2"/><radialGradient id="radial-gradient-24" cx="368.6" cy="603.38" r="219.93" gradientTransform="translate(992.96 452.71) rotate(90)" xlink:href="#radial-gradient-2"/><radialGradient id="radial-gradient-25" cx="936.83" cy="904.26" r="644.97" xlink:href="#radial-gradient"/><radialGradient id="radial-gradient-26" cx="-1318.06" cy="630.89" r="219.92" gradientTransform="matrix(-1, 0, 0, -1, -388.52, 936.92)" xlink:href="#radial-gradient-2"/><radialGradient id="radial-gradient-27" cx="-1178.91" cy="625.51" r="219.92" gradientTransform="matrix(-1, 0, 0, -1, -387.92, 945.47)" xlink:href="#radial-gradient-2"/><radialGradient id="radial-gradient-28" cx="-1024.61" cy="598.16" r="219.92" gradientTransform="translate(-385.95 954.91) rotate(-180)" xlink:href="#radial-gradient-2"/><radialGradient id="radial-gradient-29" cx="-885.39" cy="525.07" r="219.92" gradientTransform="matrix(-1, 0, 0, -1, -381.19, 963.34)" xlink:href="#radial-gradient-2"/><radialGradient id="radial-gradient-30" cx="-781.38" cy="378.23" r="219.92" gradientTransform="translate(-371.96 969.46) rotate(-180)" xlink:href="#radial-gradient-2"/><radialGradient id="radial-gradient-31" cx="-674.45" cy="254.93" r="219.92" gradientTransform="translate(-364.17 975.81) rotate(-180)" xlink:href="#radial-gradient-2"/><radialGradient id="radial-gradient-32" cx="-761.65" cy="244.17" r="219.92" gradientTransform="translate(-363.67 970.42) rotate(-180)" xlink:href="#radial-gradient-2"/><radialGradient id="radial-gradient-33" cx="-761.65" cy="353.61" r="219.92" gradientTransform="translate(-370.4 970.63) rotate(-180)" xlink:href="#radial-gradient-2"/><radialGradient id="radial-gradient-34" cx="-1398.83" cy="662.5" r="219.92" gradientTransform="matrix(-1, 0, 0, -1, -390.61, 932.01)" xlink:href="#radial-gradient-2"/><radialGradient id="radial-gradient-35" cx="-1180.08" cy="583.19" r="219.92" gradientTransform="translate(-385.32 945.32) rotate(-180)" xlink:href="#radial-gradient-2"/><radialGradient id="radial-gradient-36" cx="-882.5" cy="478.12" r="219.92" gradientTransform="matrix(-1, 0, 0, -1, -378.29, 963.43)" xlink:href="#radial-gradient-2"/><radialGradient id="radial-gradient-37" cx="-609.27" cy="215.74" r="1710.7" gradientTransform="matrix(-1, 0.06, -0.06, -1, -347.21, 1016.82)" xlink:href="#radial-gradient"/><radialGradient id="radial-gradient-38" cx="-1253.98" cy="684.55" r="219.92" gradientTransform="translate(-391.7 940.96) rotate(-180)" xlink:href="#radial-gradient-2"/><radialGradient id="radial-gradient-39" cx="-1114.83" cy="679.17" r="219.92" gradientTransform="translate(-391.1 949.52) rotate(-180)" xlink:href="#radial-gradient-2"/><radialGradient id="radial-gradient-40" cx="-960.53" cy="651.82" r="219.92" gradientTransform="matrix(-1, 0, 0, -1, -389.13, 958.96)" xlink:href="#radial-gradient-2"/><radialGradient id="radial-gradient-41" cx="-821.32" cy="578.73" r="219.92" gradientTransform="translate(-384.37 967.38) rotate(-180)" xlink:href="#radial-gradient-2"/><radialGradient id="radial-gradient-42" cx="-717.3" cy="431.89" r="219.92" gradientTransform="matrix(-1, 0, 0, -1, -375.14, 973.5)" xlink:href="#radial-gradient-2"/><radialGradient id="radial-gradient-43" cx="-610.37" cy="308.59" r="219.92" gradientTransform="matrix(-1, 0, 0, -1, -367.35, 979.85)" xlink:href="#radial-gradient-2"/><radialGradient id="radial-gradient-44" cx="-697.58" cy="297.83" r="219.92" gradientTransform="translate(-366.85 974.46) rotate(-180)" xlink:href="#radial-gradient-2"/><radialGradient id="radial-gradient-45" cx="-697.57" cy="407.27" r="219.92" gradientTransform="matrix(-1, 0, 0, -1, -373.58, 974.67)" xlink:href="#radial-gradient-2"/><radialGradient id="radial-gradient-46" cx="-1334.75" cy="716.16" r="219.92" gradientTransform="matrix(-1, 0, 0, -1, -393.79, 936.06)" xlink:href="#radial-gradient-2"/><radialGradient id="radial-gradient-47" cx="-1116.01" cy="636.85" r="219.92" gradientTransform="matrix(-1, 0, 0, -1, -388.5, 949.36)" xlink:href="#radial-gradient-2"/><radialGradient id="radial-gradient-48" cx="-818.42" cy="531.78" r="219.92" gradientTransform="translate(-381.47 967.47) rotate(-180)" xlink:href="#radial-gradient-2"/><radialGradient id="radial-gradient-49" cx="-545.19" cy="269.4" r="1710.7" gradientTransform="matrix(-1, 0.06, -0.06, -1, -347.21, 1016.82)" xlink:href="#radial-gradient"/><radialGradient id="radial-gradient-50" cx="761.04" cy="952.38" r="163.5" gradientTransform="matrix(1, 0, 0, 1, 0, 0)" xlink:href="#radial-gradient-2"/><radialGradient id="radial-gradient-51" cx="864.49" cy="948.38" r="163.5" gradientTransform="matrix(1, 0, 0, 1, 0, 0)" xlink:href="#radial-gradient-2"/><radialGradient id="radial-gradient-52" cx="979.21" cy="928.05" r="163.5" gradientTransform="matrix(1, 0, 0, 1, 0, 0)" xlink:href="#radial-gradient-2"/><radialGradient id="radial-gradient-53" cx="1082.71" cy="873.72" r="163.5" gradientTransform="matrix(1, 0, 0, 1, 0, 0)" xlink:href="#radial-gradient-2"/><radialGradient id="radial-gradient-54" cx="1160.04" cy="764.55" r="163.5" gradientTransform="matrix(1, 0, 0, 1, 0, 0)" xlink:href="#radial-gradient-2"/><radialGradient id="radial-gradient-55" cx="1239.54" cy="672.88" r="163.5" gradientTransform="matrix(1, 0, 0, 1, 0, 0)" xlink:href="#radial-gradient-2"/><radialGradient id="radial-gradient-56" cx="1174.71" cy="664.88" r="163.5" gradientTransform="matrix(1, 0, 0, 1, 0, 0)" xlink:href="#radial-gradient-2"/><radialGradient id="radial-gradient-57" cx="1174.71" cy="746.25" r="163.5" gradientTransform="matrix(1, 0, 0, 1, 0, 0)" xlink:href="#radial-gradient-2"/><radialGradient id="radial-gradient-58" cx="700.99" cy="975.88" r="163.5" gradientTransform="matrix(1, 0, 0, 1, 0, 0)" xlink:href="#radial-gradient-2"/><radialGradient id="radial-gradient-59" cx="1287.99" cy="643.75" r="1271.8" xlink:href="#radial-gradient"/><radialGradient id="radial-gradient-60" cx="-1401.97" cy="188.52" r="157.46" gradientTransform="translate(-382.07 729.09) rotate(-180)" xlink:href="#radial-gradient-2"/><radialGradient id="radial-gradient-61" cx="-1518.51" cy="240.1" r="157.46" gradientTransform="matrix(-1, 0, 0, -1, -394.12, 707.71)" xlink:href="#radial-gradient-2"/><radialGradient id="radial-gradient-62" cx="-1637.85" cy="278.7" r="157.46" gradientTransform="matrix(-1, 0, 0, -1, -403.72, 685.55)" xlink:href="#radial-gradient-2"/><radialGradient id="radial-gradient-63" cx="-1422.57" cy="240.36" r="157.46" gradientTransform="translate(-392.39 726.1) rotate(-180)" xlink:href="#radial-gradient-2"/><radialGradient id="radial-gradient-64" cx="875.66" cy="715.21" r="624.28" gradientTransform="translate(-108.48 -59.02) rotate(-7.52)" xlink:href="#radial-gradient"/><radialGradient id="radial-gradient-65" cx="-1021.09" cy="551.77" r="219.92" gradientTransform="translate(28.04 -507.07) rotate(-90)" xlink:href="#radial-gradient-2"/><radialGradient id="radial-gradient-66" cx="-944.54" cy="647.06" r="219.92" gradientTransform="translate(-125.13 -538.18) rotate(-90)" xlink:href="#radial-gradient-2"/><radialGradient id="radial-gradient-67" cx="-1094.64" cy="617.75" r="219.92" gradientTransform="translate(46.41 -632.07) rotate(-90)" xlink:href="#radial-gradient-2"/><radialGradient id="radial-gradient-68" cx="-1167.66" cy="741.75" r="219.92" gradientTransform="translate(16.83 -813.68) rotate(-90)" xlink:href="#radial-gradient-2"/><radialGradient id="radial-gradient-69" cx="-1273.31" cy="832.42" r="182" gradientTransform="translate(46.59 -989.19) rotate(-90)" xlink:href="#radial-gradient-2"/><radialGradient id="radial-gradient-70" cx="-1411.81" cy="896.74" r="182" gradientTransform="translate(130.18 -1165.65) rotate(-90)" xlink:href="#radial-gradient-2"/><radialGradient id="radial-gradient-71" cx="-1079.96" cy="792.07" r="182" gradientTransform="translate(-110.53 -791.46) rotate(-90)" xlink:href="#radial-gradient-2"/><radialGradient id="radial-gradient-72" cx="-988.43" cy="750.13" r="182" gradientTransform="translate(-166.23 -675.4) rotate(-90)" xlink:href="#radial-gradient-2"/><radialGradient id="radial-gradient-73" cx="449.73" cy="326.84" r="1094.22" gradientTransform="translate(138.15 62.77) rotate(21.57)" xlink:href="#radial-gradient"/><radialGradient id="radial-gradient-74" cx="-1085.9" cy="333.31" r="219.92" gradientTransform="translate(270.35 -345.27) rotate(-90)" xlink:href="#radial-gradient-2"/><radialGradient id="radial-gradient-75" cx="-1146.95" cy="227.45" r="219.92" gradientTransform="translate(416.91 -291.1) rotate(-90)" xlink:href="#radial-gradient-2"/><radialGradient id="radial-gradient-76" cx="-1088.43" cy="167.48" r="219.92" gradientTransform="translate(408.4 -184.3) rotate(-90)" xlink:href="#radial-gradient-2"/><radialGradient id="radial-gradient-77" cx="-1001.35" cy="337.93" r="219.92" gradientTransform="translate(183.44 -280.69) rotate(-90)" xlink:href="#radial-gradient-2"/><radialGradient id="radial-gradient-78" cx="-902.84" cy="289.48" r="219.92" gradientTransform="translate(126.2 -152.53) rotate(-90)" xlink:href="#radial-gradient-2"/><radialGradient id="radial-gradient-79" cx="699.97" cy="674.09" r="633.32" xlink:href="#radial-gradient"/><radialGradient id="radial-gradient-80" cx="-357.74" cy="69.73" r="219.93" gradientTransform="matrix(0, 1, -1, 0, 977.47, 1331.16)" xlink:href="#radial-gradient-2"/><radialGradient id="radial-gradient-81" cx="-429.74" cy="-20.84" r="219.93" gradientTransform="matrix(0, 1, -1, 0, 905.74, 1288.99)" xlink:href="#radial-gradient-2"/><radialGradient id="radial-gradient-82" cx="-360.28" cy="-96.1" r="219.93" gradientTransform="translate(932.89 1220.54) rotate(90)" xlink:href="#radial-gradient-2"/><radialGradient id="radial-gradient-83" cx="-276.45" cy="90.28" r="219.93" gradientTransform="matrix(0, 1, -1, 0, 1037.33, 1323.92)" xlink:href="#radial-gradient-2"/><radialGradient id="radial-gradient-84" cx="-156.79" cy="81.65" r="219.93" gradientTransform="matrix(0, 1, -1, 0, 1115.39, 1287.2)" xlink:href="#radial-gradient-2"/><radialGradient id="radial-gradient-85" cx="-63.52" cy="800.25" r="633.31" gradientTransform="translate(254.98 1565.68) rotate(-142.66)" xlink:href="#radial-gradient"/></defs><title>Asset 1</title><g class="cls-2"><g id="Layer_2" data-name="Layer 2"><g id="BACKGROUND_2" data-name="BACKGROUND 2"><rect id="_Rectangle_4" data-name="&lt;Rectangle&gt;" class="cls-3" x="434.83" y="438.26" width="750" height="500"/><g id="_Clip_Group_" data-name="&lt;Clip Group&gt;"><g class="cls-4"><g id="_Group_" data-name="&lt;Group&gt;" class="cls-5"><circle id="_Path_" data-name="&lt;Path&gt;" class="cls-6" cx="936.12" cy="611.81" r="219.92" transform="translate(-99.89 190.73) rotate(-11.05)"/><circle id="_Path_2" data-name="&lt;Path&gt;" class="cls-7" cx="1082.07" cy="509.93" r="219.92" transform="translate(-77.66 216.81) rotate(-11.05)"/><circle id="_Path_3" data-name="&lt;Path&gt;" class="cls-8" cx="1235.32" cy="425.08" r="219.92" transform="translate(-58.57 244.61) rotate(-11.05)"/><circle id="_Path_4" data-name="&lt;Path&gt;" class="cls-9" cx="867.5" cy="558.23" r="219.92" transform="translate(-90.9 176.59) rotate(-11.05)"/><circle id="_Path_5" data-name="&lt;Path&gt;" class="cls-10" cx="851.5" cy="616.23" r="219.92" transform="translate(-102.31 174.59) rotate(-11.05)"/><circle id="_Path_6" data-name="&lt;Path&gt;" class="cls-11" cx="894.5" cy="636.2" r="219.92" transform="translate(-105.34 183.2) rotate(-11.05)"/><path id="_Path_7" data-name="&lt;Path&gt;" class="cls-12" d="M808.07,462.41c-23.32,40.1-34.59,86.25-30.53,132.46,4.87,55.53,31.68,121,133.06,112.38,200.61-21.87,170.54-182.8,296.45-199.43s196.9,177.29,357.25,115.94S1707.65,311.5,1539.23,243s-251,62.39-368,77.83C1066.52,334.61,894.43,313.92,808.07,462.41Z"/></g><g id="_Group_2" data-name="&lt;Group&gt;" class="cls-13"><circle id="_Path_8" data-name="&lt;Path&gt;" class="cls-14" cx="525.21" cy="791.01" r="219.92" transform="translate(-416.86 672.46) rotate(-49.24)"/><circle id="_Path_9" data-name="&lt;Path&gt;" class="cls-15" cx="473.51" cy="961.33" r="219.92" transform="translate(-563.82 692.42) rotate(-49.24)"/><circle id="_Path_10" data-name="&lt;Path&gt;" class="cls-16" cx="405.53" cy="1122.77" r="219.92" transform="matrix(0.65, -0.76, 0.76, 0.65, -709.72, 696.98)"/><circle id="_Path_11" data-name="&lt;Path&gt;" class="cls-17" cx="612.27" cy="790.68" r="219.92" transform="translate(-386.38 738.29) rotate(-49.24)"/><circle id="_Path_12" data-name="&lt;Path&gt;" class="cls-18" cx="588.98" cy="735.21" r="219.92" transform="translate(-352.45 701.39) rotate(-49.24)"/><circle id="_Path_13" data-name="&lt;Path&gt;" class="cls-19" cx="542.84" cy="746.11" r="219.92" transform="translate(-376.72 670.23) rotate(-49.24)"/><path id="_Path_14" data-name="&lt;Path&gt;" class="cls-20" d="M718.23,829.24c-6.47-45.94-27-85.5-58.73-119.31C621.34,669.3,509.15,597.1,434.83,666.59c-144.13,141.24,30.43,282.74-58.24,373.66S112.22,1022.67,24.14,1170s80.43,334.07,255.18,283.79S438,1249.6,520.38,1165.12C594.14,1089.49,742.17,999.34,718.23,829.24Z"/></g></g></g><g id="_Clip_Group_2" data-name="&lt;Clip Group&gt;"><g class="cls-4"><circle id="_Path_15" data-name="&lt;Path&gt;" class="cls-21" cx="1375.72" cy="382.26" r="2.36"/><g id="_Group_3" data-name="&lt;Group&gt;" class="cls-22"><circle id="_Path_16" data-name="&lt;Path&gt;" class="cls-23" cx="475.96" cy="829.18" r="219.92" transform="translate(-478.56 883.66) rotate(-63.41)"/><circle id="_Path_17" data-name="&lt;Path&gt;" class="cls-24" cx="602.8" cy="886.65" r="219.92" transform="translate(-459.89 1028.84) rotate(-63.41)"/><circle id="_Path_18" data-name="&lt;Path&gt;" class="cls-25" cx="753.03" cy="931.26" r="219.92" transform="translate(-416.79 1187.81) rotate(-63.41)"/><circle id="_Path_19" data-name="&lt;Path&gt;" class="cls-26" cx="910.23" cy="928.22" r="219.92" transform="translate(-327.24 1326.71) rotate(-63.41)"/><circle id="_Path_20" data-name="&lt;Path&gt;" class="cls-27" cx="1068.97" cy="843.47" r="219.92" transform="translate(-163.76 1421.84) rotate(-63.41)"/><circle id="_Path_21" data-name="&lt;Path&gt;" class="cls-28" cx="1219.78" cy="781.08" r="219.92" transform="translate(-24.66 1522.24) rotate(-63.41)"/><circle id="_Path_22" data-name="&lt;Path&gt;" class="cls-29" cx="1146.62" cy="732.42" r="219.92" transform="translate(-21.57 1429.93) rotate(-63.41)"/><circle id="_Path_23" data-name="&lt;Path&gt;" class="cls-30" cx="1097.63" cy="830.29" r="219.92" transform="translate(-136.14 1440.19) rotate(-63.41)"/><circle id="_Path_24" data-name="&lt;Path&gt;" class="cls-31" cx="389.59" cy="821.29" r="219.92" transform="translate(-519.22 802.07) rotate(-63.41)"/><path id="_Path_25" data-name="&lt;Path&gt;" class="cls-32" d="M280.07,895c-16-113.73,64.65-215,211.23-201.91,184.82,16.54,223.47,157.73,382,109s225.67-258.94,390.82-157.74,101.06,479.69-96,478.26-309.29-137.35-457.53-80.39C569.28,1096.52,321.66,1079.3,280.07,895Z"/></g><g id="_Group_4" data-name="&lt;Group&gt;"><circle id="_Path_26" data-name="&lt;Path&gt;" class="cls-33" cx="929.55" cy="306.06" r="219.92" transform="translate(-17.07 57.77) rotate(-3.53)"/><circle id="_Path_27" data-name="&lt;Path&gt;" class="cls-34" cx="790.99" cy="319.99" r="219.92" transform="translate(-18.19 49.27) rotate(-3.53)"/><circle id="_Path_28" data-name="&lt;Path&gt;" class="cls-35" cx="638.67" cy="356.78" r="219.92" transform="translate(-20.74 39.97) rotate(-3.53)"/><circle id="_Path_29" data-name="&lt;Path&gt;" class="cls-36" cx="504.21" cy="438.29" r="219.92" transform="translate(-26.01 31.85) rotate(-3.53)"/><circle id="_Path_30" data-name="&lt;Path&gt;" class="cls-37" cx="409.42" cy="591.25" r="219.92" transform="translate(-35.6 26.31) rotate(-3.53)"/><circle id="_Path_31" data-name="&lt;Path&gt;" class="cls-38" cx="310.28" cy="720.9" r="219.92" transform="translate(-43.76 20.46) rotate(-3.53)"/><circle id="_Path_32" data-name="&lt;Path&gt;" class="cls-39" cx="397.98" cy="726.27" r="219.92" transform="translate(-43.93 25.86) rotate(-3.53)"/><circle id="_Path_33" data-name="&lt;Path&gt;" class="cls-40" cx="391.25" cy="617.04" r="219.92" transform="translate(-37.22 25.24) rotate(-3.53)"/><circle id="_Path_34" data-name="&lt;Path&gt;" class="cls-41" cx="1008.22" cy="269.54" r="219.92" transform="translate(-14.67 62.54) rotate(-3.53)"/><circle id="_Path_35" data-name="&lt;Path&gt;" class="cls-42" cx="794.77" cy="362.16" r="219.92" transform="translate(-20.78 49.58) rotate(-3.53)"/><circle id="_Path_36" data-name="&lt;Path&gt;" class="cls-43" cx="504.21" cy="485.33" r="219.92" transform="translate(-28.9 31.94) rotate(-3.53)"/><path id="_Path_37" data-name="&lt;Path&gt;" class="cls-44" d="M1066,150.86c70.88,90.37,52,218.44-81.41,280.64-168.16,78.43-272.44-24.31-385.1,97.34S534.2,866.06,340.56,861.39,12.45,497.17,183.6,399.53s336.45-36.38,436.1-160C714.69,121.64,937.51,12.28,1066,150.86Z"/></g><g id="_Group_5" data-name="&lt;Group&gt;"><circle id="_Path_38" data-name="&lt;Path&gt;" class="cls-45" cx="862.29" cy="256.45" r="219.92" transform="translate(-14.14 53.54) rotate(-3.53)"/><circle id="_Path_39" data-name="&lt;Path&gt;" class="cls-46" cx="723.74" cy="270.38" r="219.92" transform="translate(-15.26 45.04) rotate(-3.53)"/><circle id="_Path_40" data-name="&lt;Path&gt;" class="cls-47" cx="571.41" cy="307.17" r="219.92" transform="translate(-17.82 35.74) rotate(-3.53)"/><circle id="_Path_41" data-name="&lt;Path&gt;" class="cls-48" cx="436.96" cy="388.68" r="219.92" transform="translate(-23.08 27.62) rotate(-3.53)"/><circle id="_Path_42" data-name="&lt;Path&gt;" class="cls-49" cx="342.17" cy="541.64" r="219.92" transform="translate(-32.68 22.08) rotate(-3.53)"/><circle id="_Path_43" data-name="&lt;Path&gt;" class="cls-50" cx="243.02" cy="671.28" r="219.92" transform="translate(-40.84 16.22) rotate(-3.53)"/><circle id="_Path_44" data-name="&lt;Path&gt;" class="cls-51" cx="330.73" cy="676.65" r="219.92" transform="translate(-41 21.63) rotate(-3.53)"/><circle id="_Path_45" data-name="&lt;Path&gt;" class="cls-52" cx="323.99" cy="567.42" r="219.92" transform="translate(-34.3 21.01) rotate(-3.53)"/><circle id="_Path_46" data-name="&lt;Path&gt;" class="cls-53" cx="940.97" cy="219.93" r="219.92" transform="translate(-11.75 58.31) rotate(-3.53)"/><circle id="_Path_47" data-name="&lt;Path&gt;" class="cls-54" cx="727.51" cy="312.54" r="219.92" transform="translate(-17.85 45.35) rotate(-3.53)"/><circle id="_Path_48" data-name="&lt;Path&gt;" class="cls-55" cx="436.96" cy="435.71" r="219.92" transform="translate(-25.98 27.71) rotate(-3.53)"/><path id="_Path_49" data-name="&lt;Path&gt;" class="cls-56" d="M998.73,101.24c70.88,90.37,52,218.44-81.41,280.64-168.16,78.43-272.44-24.31-385.1,97.34S466.94,816.45,273.31,811.77s-328.11-364.22-157-461.86,336.45-36.38,436.1-160C647.43,72,870.26-37.33,998.73,101.24Z"/></g><g id="_Group_6" data-name="&lt;Group&gt;"><circle id="_Path_50" data-name="&lt;Path&gt;" class="cls-57" cx="761.04" cy="952.38" r="163.5"/><circle id="_Path_51" data-name="&lt;Path&gt;" class="cls-58" cx="864.49" cy="948.38" r="163.5"/><circle id="_Path_52" data-name="&lt;Path&gt;" class="cls-59" cx="979.21" cy="928.05" r="163.5"/><circle id="_Path_53" data-name="&lt;Path&gt;" class="cls-60" cx="1082.71" cy="873.72" r="163.5"/><circle id="_Path_54" data-name="&lt;Path&gt;" class="cls-61" cx="1160.04" cy="764.55" r="163.5"/><circle id="_Path_55" data-name="&lt;Path&gt;" class="cls-62" cx="1239.54" cy="672.88" r="163.5"/><circle id="_Path_56" data-name="&lt;Path&gt;" class="cls-63" cx="1174.71" cy="664.88" r="163.5"/><circle id="_Path_57" data-name="&lt;Path&gt;" class="cls-64" cx="1174.71" cy="746.25" r="163.5"/><circle id="_Path_58" data-name="&lt;Path&gt;" class="cls-65" cx="700.99" cy="975.88" r="163.5"/><path id="_Path_59" data-name="&lt;Path&gt;" class="cls-66" d="M652.7,1061.31c-48.46-70.3-28.57-164.47,73.24-204.53,128.37-50.51,201.05,30.5,290.21-54.62S1080,554.92,1223.5,567.24s226.81,285.28,95.35,349.9-251.33,11.61-330.93,98.81C912,1099.06,741.69,1170,652.7,1061.31Z"/></g><g id="_Group_7" data-name="&lt;Group&gt;" class="cls-13"><circle id="_Path_60" data-name="&lt;Path&gt;" class="cls-67" cx="1019.94" cy="540.61" r="157.47" transform="translate(-84.7 205.47) rotate(-11.05)"/><circle id="_Path_61" data-name="&lt;Path&gt;" class="cls-68" cx="1124.44" cy="467.66" r="157.47" transform="translate(-68.78 224.15) rotate(-11.05)"/><circle id="_Path_62" data-name="&lt;Path&gt;" class="cls-69" cx="1234.18" cy="406.91" r="157.47" transform="translate(-55.1 244.05) rotate(-11.05)"/><circle id="_Path_63" data-name="&lt;Path&gt;" class="cls-70" cx="1030.23" cy="485.78" r="157.47" transform="translate(-74 206.43) rotate(-11.05)"/><path id="_Path_64" data-name="&lt;Path&gt;" class="cls-71" d="M928.25,433.64c-16.7,28.71-24.76,61.76-21.86,94.85,3.49,39.76,22.68,86.67,95.27,80.47,143.64-15.66,122.11-130.89,212.26-142.79s141,126.94,255.8,83,102.65-223.6-17.94-272.68-179.72,44.67-263.48,55.73C1113.31,342.13,990.09,327.32,928.25,433.64Z"/></g><g id="_Group_8" data-name="&lt;Group&gt;" class="cls-72"><circle id="_Path_65" data-name="&lt;Path&gt;" class="cls-73" cx="579.82" cy="514" r="219.92" transform="translate(-31.37 990.27) rotate(-79.48)"/><circle id="_Path_66" data-name="&lt;Path&gt;" class="cls-74" cx="521.95" cy="406.33" r="219.92" transform="translate(27.18 845.35) rotate(-79.48)"/><circle id="_Path_67" data-name="&lt;Path&gt;" class="cls-75" cx="664.19" cy="462.55" r="219.92" transform="translate(88.18 1031.15) rotate(-79.48)"/><circle id="_Path_68" data-name="&lt;Path&gt;" class="cls-76" cx="758.6" cy="353.96" r="219.92" transform="translate(272.13 1035.21) rotate(-79.48)"/><circle id="_Path_69" data-name="&lt;Path&gt;" class="cls-77" cx="879.03" cy="284.1" r="182" transform="translate(439.26 1096.5) rotate(-79.48)"/><circle id="_Path_70" data-name="&lt;Path&gt;" class="cls-78" cx="1026.95" cy="246.13" r="182" transform="translate(597.51 1210.9) rotate(-79.48)"/><circle id="_Path_71" data-name="&lt;Path&gt;" class="cls-79" cx="681.57" cy="288.47" r="182" transform="translate(273.54 905.94) rotate(-79.48)"/><circle id="_Path_72" data-name="&lt;Path&gt;" class="cls-80" cx="583.92" cy="313.01" r="182" transform="translate(169.59 829.99) rotate(-79.48)"/><path id="_Path_73" data-name="&lt;Path&gt;" class="cls-81" d="M589.81,585.8c64.38-5.63,121.52-43.11,154-99,37.13-63.86,115.12-158.41,252.33-161,207.66-3.92,236-266.57,68.72-288.79S901.38,211.84,735,183.83,479.65,212.48,440.21,309.56C407.53,390,420.32,600.63,589.81,585.8Z"/></g><g id="_Group_9" data-name="&lt;Group&gt;" class="cls-82"><circle id="_Path_74" data-name="&lt;Path&gt;" class="cls-83" cx="603.68" cy="740.62" r="219.92" transform="translate(-234.68 1198.98) rotate(-79.48)"/><circle id="_Path_75" data-name="&lt;Path&gt;" class="cls-84" cx="644.39" cy="855.84" r="219.92" transform="translate(-314.69 1333.19) rotate(-79.48)"/><circle id="_Path_76" data-name="&lt;Path&gt;" class="cls-85" cx="575.9" cy="904.12" r="219.92" transform="translate(-418.15 1305.32) rotate(-79.48)"/><circle id="_Path_77" data-name="&lt;Path&gt;" class="cls-86" cx="521.39" cy="720.65" r="219.92" transform="translate(-282.32 1101.74) rotate(-79.48)"/><circle id="_Path_78" data-name="&lt;Path&gt;" class="cls-87" cx="415.7" cy="750.3" r="219.92" transform="translate(-397.87 1022.07) rotate(-79.48)"/><path id="_Path_79" data-name="&lt;Path&gt;" class="cls-88" d="M241.2,815.62c16.64-109.34,104.17-193.84,213.61-209.8,59.73-8.71,140.43-2.85,213.63,61.44,138.19,121.38,101.64,327.38-45.09,310.38S462.42,951,344.53,984.34C273.61,1004.37,226,915.19,241.2,815.62Z"/></g><g id="_Group_10" data-name="&lt;Group&gt;" class="cls-89"><circle id="_Path_80" data-name="&lt;Path&gt;" class="cls-90" cx="907.74" cy="973.43" r="219.92" transform="translate(-418.49 860.84) rotate(-42.15)"/><circle id="_Path_81" data-name="&lt;Path&gt;" class="cls-91" cx="926.59" cy="859.27" r="219.92" transform="translate(-337.01 843.97) rotate(-42.15)"/><circle id="_Path_82" data-name="&lt;Path&gt;" class="cls-92" cx="1028.99" cy="860.28" r="219.92" transform="translate(-311.21 912.95) rotate(-42.15)"/><circle id="_Path_83" data-name="&lt;Path&gt;" class="cls-93" cx="947.06" cy="1047.48" r="219.92" transform="translate(-458.01 906.37) rotate(-42.15)"/><circle id="_Path_84" data-name="&lt;Path&gt;" class="cls-94" cx="1033.74" cy="1130.41" r="219.92" transform="translate(-491.25 985.98) rotate(-42.15)"/><path id="_Path_85" data-name="&lt;Path&gt;" class="cls-95" d="M1241.43,1133.63c-79.55,76.85-200.39,90.95-297.09,37.26C891.58,1141.59,831,1088,811.75,992.48,775.49,812.16,929.49,670.54,1035.84,773s111.83,118.74,225.76,163.77C1330.14,963.91,1313.87,1063.65,1241.43,1133.63Z"/></g></g></g><g id="_Clip_Group_4" data-name="&lt;Clip Group&gt;"><g class="cls-4"><path id="_Path_86" data-name="&lt;Path&gt;" class="cls-96" d="M366.83,824.26s115.36-45.15,136-173.78,86-174.83,161.3-193.22,295.28,10.3,344-85.33"/><path id="_Path_87" data-name="&lt;Path&gt;" class="cls-96" d="M586.83,980.26c0-3,25.68-111.58,147-150s249.13,27.38,306.11-105,60.89-197,201.89-181"/><path id="_Path_88" data-name="&lt;Path&gt;" class="cls-97" d="M809.83,422.26S603.64,410.22,527,522.6s-26.28,246-210.13,283.32"/><path id="_Path_89" data-name="&lt;Path&gt;" class="cls-97" d="M654.83,1015.93s1.45-149.34,142.67-156.67,201.33,22,256-67.33,60-251.33,210-209.33"/></g></g></g></g></g></svg>