<svg xmlns="http://www.w3.org/2000/svg" viewBox="0 0 184.92 141.49"><defs><style>.cls-1,.cls-3{fill:#054e6b;}.cls-1{stroke:#000;stroke-width:0.4px;}.cls-2{fill:#08506d;}.cls-4{fill:#25535c;}.cls-5{fill:#00bfff;}.cls-6{fill:#e0e0e0;}.cls-7{fill:#1f353d;}.cls-8{fill:#fff;}.cls-9{opacity:0.1;}.cls-10{fill:#f0ebd2;}.cls-11{fill:#f3b546;}.cls-12{fill:#36a9e1;}</style></defs><title>Asset 1</title><g id="Layer_2" data-name="Layer 2"><g id="OBJECTS"><path class="cls-1" d="M92.94,136.76a3.7,3.7,0,0,1-3.7,3.7H72.59a3.69,3.69,0,0,1-3.69-3.7v-3.7a3.7,3.7,0,0,1,3.69-3.7H89.24a3.7,3.7,0,0,1,3.7,3.7Z"/><path class="cls-2" d="M43.81,72.26V66.74S56.18,60.23,63.33,55,77,31,77,31h8.46S91.3,49.17,96.51,53.07s20.17,12.36,20.17,12.36v6.83Z"/><polygon class="cls-3" points="36.29 90.21 18.14 90.27 18.23 114.3 36.38 114.23 36.29 90.21"/><polygon class="cls-4" points="18.19 90.21 0 81.48 0.2 123.02 18.27 114.24 18.19 90.21"/><rect class="cls-3" x="123.48" y="77.17" width="11.22" height="13.59" transform="translate(-0.28 0.43) rotate(-0.19)"/><polygon class="cls-3" points="134.25 77.15 145.46 72.15 145.51 95.65 134.3 90.74 134.25 77.15"/><polygon class="cls-3" points="18.19 90.21 0 81.48 0.2 123.02 18.27 114.24 18.19 90.21"/><path class="cls-5" d="M38,71.61h85.88a3.9,3.9,0,0,1,3.9,3.9v55.95a3.9,3.9,0,0,1-3.9,3.9H38a3.91,3.91,0,0,1-3.91-3.91V75.51A3.9,3.9,0,0,1,38,71.61Z"/><circle class="cls-6" cx="118.74" cy="32.3" r="23.75"/><path class="cls-7" d="M118.74,0A32.3,32.3,0,1,0,151,32.3,32.3,32.3,0,0,0,118.74,0ZM89,32.82c0-.23,0-.46,0-.69a8.39,8.39,0,0,1,16.74-.78c0,.26,0,.52,0,.78A8.39,8.39,0,0,1,89,32.82ZM108.4,59.06a8.39,8.39,0,1,1,8.39-8.39A8.39,8.39,0,0,1,108.4,59.06Zm0-36.1a8.39,8.39,0,1,1,8.39-8.39A8.39,8.39,0,0,1,108.4,23Zm21-16.89A8.39,8.39,0,1,1,121,14.46,8.39,8.39,0,0,1,129.36,6.07Zm.11,53a8.39,8.39,0,1,1,8.39-8.39A8.39,8.39,0,0,1,129.46,59.06Zm11-18.77a8.37,8.37,0,1,1,8.39-8.39A8.39,8.39,0,0,1,140.5,40.3Z"/><circle class="cls-8" cx="118.74" cy="32.3" r="3.16"/><circle class="cls-6" cx="43.06" cy="32.51" r="23.75"/><path class="cls-7" d="M43.06.21a32.3,32.3,0,1,0,32.29,32.3A32.3,32.3,0,0,0,43.06.21ZM13.33,33c0-.23,0-.46,0-.69A8.39,8.39,0,0,1,30,31.55c0,.26,0,.52,0,.78A8.39,8.39,0,0,1,13.33,33ZM32.72,59.27a8.39,8.39,0,1,1,8.39-8.39A8.39,8.39,0,0,1,32.72,59.27Zm0-36.1a8.39,8.39,0,1,1,8.39-8.39A8.39,8.39,0,0,1,32.72,23.17Zm21-16.89a8.39,8.39,0,1,1-8.39,8.39A8.39,8.39,0,0,1,53.67,6.28Zm.11,53a8.39,8.39,0,1,1,8.39-8.39A8.39,8.39,0,0,1,53.78,59.27Zm11-18.77a8.37,8.37,0,1,1,8.39-8.39A8.39,8.39,0,0,1,64.82,40.51Z"/><circle class="cls-8" cx="43.06" cy="32.51" r="3.17"/><path class="cls-9" d="M134.12,77.15h0l-6.52,0V75.52a3.91,3.91,0,0,0-3.91-3.9h-7.16V65.44l-1.92-1.09a32.63,32.63,0,0,0,4,.25,32.3,32.3,0,1,0-32.3-32.3q0,.85,0,1.69c-.66-1.84-1-3-1-3H79.92c2.06,36.5,2.36,73-1.67,109.5H89.1a3.7,3.7,0,0,0,3.7-3.7v-1.39h30.9a3.91,3.91,0,0,0,3.91-3.9V90.77l6.57,0,11.21,4.91,0-23.5Zm10.74-52.87a8.4,8.4,0,0,1,4,4,8.36,8.36,0,0,1-6.92,12,23.77,23.77,0,0,0-.3-16.73A8.36,8.36,0,0,1,144.86,24.29ZM130.22,6.07a8.38,8.38,0,0,1,7.86,11.31,23.72,23.72,0,0,0-14.17-8.44A8.37,8.37,0,0,1,130.22,6.07ZM138,47.3a8.38,8.38,0,0,1-14.38,8.4A23.72,23.72,0,0,0,138,47.3ZM109.26,6.18a8.36,8.36,0,0,1,6.19,2.74,23.73,23.73,0,0,0-14.16,8.25,8.38,8.38,0,0,1,8-11Zm-12,34.27a8.38,8.38,0,0,1-7.42-7.64c0-.23,0-.46,0-.69a8.4,8.4,0,0,1,7.6-8.35,23.78,23.78,0,0,0-.15,16.68Zm12,18.61a8.38,8.38,0,0,1-7.8-11.45,23.71,23.71,0,0,0,14.46,8.15A8.37,8.37,0,0,1,109.26,59.06Z"/><rect class="cls-10" x="118.23" y="133.49" width="54.49" height="8.01"/><path class="cls-10" d="M181.42,34.21A4.47,4.47,0,0,0,183,32.43a2,2,0,0,0-.28-2.25,3.67,3.67,0,0,0-2.95-.91,4,4,0,0,0-2.25-4.42,5.08,5.08,0,0,0-1.3-.4,8.14,8.14,0,0,0-7.41,3.26,6.52,6.52,0,0,0-1.32,3c-.29,0-.59,0-.89,0h-.23a4.11,4.11,0,0,0-1-3.66,6.56,6.56,0,0,0-3.81-1.86,12.52,12.52,0,0,0-3.91,0c1.13-4.93-.79-9.31-5-11.29a11.64,11.64,0,0,0-3-.91c-6.07-1-13.29,2.19-17.57,7.82a15.33,15.33,0,0,0-3.25,7.91,29.39,29.39,0,0,0-3-.06c-10,.29-17.82,5.49-17.53,11.58.15,3.08,2.37,5.86,5.93,7.79l5.05,86,52.49.24,4-90.83-3.08,0a8.74,8.74,0,0,0,3-1.87h.6a11.11,11.11,0,0,0,5.22-1.35c1.45-.85,2.21-2,2.15-3.15A3.71,3.71,0,0,0,181.42,34.21Zm-21.35,2.63.15-.08.12.19Zm7.4,6.7c0-.11,0-.22,0-.33a4.37,4.37,0,0,0,.47.25l.18.07Z"/><path class="cls-11" d="M155.09,35.85a2.76,2.76,0,0,0,2.28.63l-.07.13a1.34,1.34,0,0,0,.65,2,1.77,1.77,0,0,0,1.63-.48,2.73,2.73,0,0,0,2.53,1.6,2.7,2.7,0,0,0,2.45-3,3.15,3.15,0,0,0-.67-1.74,5.21,5.21,0,0,0,.64-.31c1.65-.94,2.23-2.51,1.31-3.51s-2.7-1-4.28-.3a2.55,2.55,0,0,0-4.62,1.47l-.38.2C154.92,33.46,154.25,34.95,155.09,35.85Z"/><path class="cls-11" d="M137.83,26.82a1.58,1.58,0,0,0,.54,1.85l-.18,0c-1.16.19-2,.86-1.79,1.49.12.44.67.74,1.39.83-.8.85-1,1.85-.37,2.53.85.94,2.89.94,4.55,0a4.12,4.12,0,0,0,1.51-1.37,5.33,5.33,0,0,0,.68.26c1.9.59,3.9.13,4.48-1s-.34-2.34-2-3a1.6,1.6,0,0,0,0-2c-.76-.84-2.47-.93-4-.27l-.42-.15C140.31,25.43,138.35,25.79,137.83,26.82Z"/><path class="cls-12" d="M145.63,40.53h-.23l-39.29.26.07,6.47,3.38,0,8.87,87.8,27,.36h.23l27-.36,8.87-87.8,3.38,0,.07-6.47Zm-25,93.2-2-87.66,8.21-.12,2,87.66Zm14.88-.1-2-87.66,8.21-.12,2,87.66Zm19.91,0-8.21-.11,2-87.66,8.21.12Zm14.88.1-8.21-.12,2-87.66,8.21.12Z"/><path class="cls-9" d="M180.48,40.76a8.4,8.4,0,0,0,1-.5c1.45-.85,2.21-2,2.15-3.15a3.71,3.71,0,0,0-2.25-2.9A4.47,4.47,0,0,0,183,32.43a2,2,0,0,0-.28-2.25,3.67,3.67,0,0,0-2.95-.91,4,4,0,0,0-2.25-4.42,5.08,5.08,0,0,0-1.3-.4,8.14,8.14,0,0,0-7.41,3.26,6.52,6.52,0,0,0-1.32,3c-.29,0-.59,0-.89,0h-.23a4.11,4.11,0,0,0-1-3.66,6.56,6.56,0,0,0-3.81-1.86,12.52,12.52,0,0,0-3.91,0c1.13-4.93-.79-9.31-5-11.29a11.64,11.64,0,0,0-3-.91,13.93,13.93,0,0,0-2.54-.18c.23,9.26.5,18.5.75,27.73.31,11.46.6,22.91.73,34.35v0c.24,19.72,0,39.44-1.24,59.25q-.24,3.68-.53,7.36h25.86v-7.66l8.75-86.59,3.38,0,.07-6.47Z"/></g></g></svg>