<svg xmlns="http://www.w3.org/2000/svg" viewBox="0 0 495 495"><defs><style>.cls-1{fill:#fff;}</style></defs><title>Asset 1</title><g id="Layer_2" data-name="Layer 2"><g id="Layer_1-2" data-name="Layer 1"><circle class="cls-1" cx="22.5" cy="22.5" r="22.5"/><circle class="cls-1" cx="112.5" cy="22.5" r="22.5"/><circle class="cls-1" cx="202.5" cy="22.5" r="22.5"/><circle class="cls-1" cx="292.5" cy="22.5" r="22.5"/><circle class="cls-1" cx="382.5" cy="22.5" r="22.5"/><circle class="cls-1" cx="472.5" cy="22.5" r="22.5"/><circle class="cls-1" cx="22.5" cy="112.5" r="22.5"/><circle class="cls-1" cx="112.5" cy="112.5" r="22.5"/><circle class="cls-1" cx="202.5" cy="112.5" r="22.5"/><circle class="cls-1" cx="292.5" cy="112.5" r="22.5"/><circle class="cls-1" cx="382.5" cy="112.5" r="22.5"/><circle class="cls-1" cx="472.5" cy="112.5" r="22.5"/><circle class="cls-1" cx="22.5" cy="202.5" r="22.5"/><circle class="cls-1" cx="112.5" cy="202.5" r="22.5"/><circle class="cls-1" cx="202.5" cy="202.5" r="22.5"/><circle class="cls-1" cx="292.5" cy="202.5" r="22.5"/><circle class="cls-1" cx="382.5" cy="202.5" r="22.5"/><circle class="cls-1" cx="472.5" cy="202.5" r="22.5"/><circle class="cls-1" cx="22.5" cy="292.5" r="22.5"/><circle class="cls-1" cx="112.5" cy="292.5" r="22.5"/><circle class="cls-1" cx="202.5" cy="292.5" r="22.5"/><circle class="cls-1" cx="292.5" cy="292.5" r="22.5"/><circle class="cls-1" cx="382.5" cy="292.5" r="22.5"/><circle class="cls-1" cx="472.5" cy="292.5" r="22.5"/><circle class="cls-1" cx="22.5" cy="382.5" r="22.5"/><circle class="cls-1" cx="112.5" cy="382.5" r="22.5"/><circle class="cls-1" cx="202.5" cy="382.5" r="22.5"/><circle class="cls-1" cx="292.5" cy="382.5" r="22.5"/><circle class="cls-1" cx="382.5" cy="382.5" r="22.5"/><circle class="cls-1" cx="472.5" cy="382.5" r="22.5"/><circle class="cls-1" cx="22.5" cy="472.5" r="22.5"/><circle class="cls-1" cx="112.5" cy="472.5" r="22.5"/><circle class="cls-1" cx="202.5" cy="472.5" r="22.5"/><circle class="cls-1" cx="292.5" cy="472.5" r="22.5"/><circle class="cls-1" cx="382.5" cy="472.5" r="22.5"/><circle class="cls-1" cx="472.5" cy="472.5" r="22.5"/></g></g></svg>