<svg xmlns="http://www.w3.org/2000/svg" viewBox="0 0 560 560"><defs><style>.cls-1{fill:#fff;}</style></defs><title>Asset 2</title><g id="Layer_2" data-name="Layer 2"><g id="Layer_1-2" data-name="Layer 1"><path class="cls-1" d="M0,352.72v33.47L147.37,533.57c8.42-2.46,16.92-5.14,25.41-8.06Z"/><path class="cls-1" d="M0,284.25v35.94L196.47,516.67c8.43-3.4,16.77-7.06,24.94-11Z"/><path class="cls-1" d="M0,83.72v32.09l315.1,315.1a147.17,147.17,0,0,0,11.63-20.46Z"/><path class="cls-1" d="M0,214.72v37L242.73,494.46c7.83-4.48,15.41-9.26,22.64-14.36Z"/><path class="cls-1" d="M0,148.34v33.86L283.65,465.84a195,195,0,0,0,17.13-16.73Z"/><path class="cls-1" d="M0,485.72v33.47l37.06,37.06c8.61-1.11,18.43-2.53,29.15-4.33Z"/><path class="cls-1" d="M542.26,0l4,4C554.92,1.3,560,0,560,0Z"/><path class="cls-1" d="M0,16.26V51.19L335.29,386.49A145.6,145.6,0,0,0,339.74,356Z"/><path class="cls-1" d="M0,418.72v34.47l93.62,93.62c9.06-1.86,18.47-4,28.12-6.35Z"/><path class="cls-1" d="M183.74,0H151.26L321.14,169.87a150.69,150.69,0,0,1,10.05-22.42Z"/><path class="cls-1" d="M381.74,0H347.26l65.26,65.26c7-4.64,14.19-9,21.35-13.12Z"/><path class="cls-1" d="M509.74,0H480.26l20.18,20.18c7.63-3.06,14.82-5.75,21.38-8.1Z"/><path class="cls-1" d="M447.74,0H414.26L455,40.73c7.68-3.91,15.27-7.52,22.63-10.84Z"/><path class="cls-1" d="M0,551.72V560s2.74-.16,7.7-.57Z"/><path class="cls-1" d="M314.71,196,120.46,1.72,122.18,0H82.26L314.17,231.91A141.92,141.92,0,0,1,314.71,196Z"/><path class="cls-1" d="M324.87,275.13,49.74,0H16.26L337.55,321.29A236.13,236.13,0,0,0,324.87,275.13Z"/><path class="cls-1" d="M249.74,0H216.26L343.9,127.63a207,207,0,0,1,15.23-18.24Z"/><path class="cls-1" d="M314.74,0H282.26l93.35,93.35c5.74-5.1,11.71-10,17.84-14.63Z"/></g></g></svg>